<svg xmlns="http://www.w3.org/2000/svg" xmlns:xlink="http://www.w3.org/1999/xlink" version="1.1" width="256" height="256" viewBox="0 0 256 256" xml:space="preserve">

<defs>
</defs>
<g style="stroke: none; stroke-width: 0; stroke-dasharray: none; stroke-linecap: butt; stroke-linejoin: miter; stroke-miterlimit: 10; fill: none; fill-rule: nonzero; opacity: 1;" transform="translate(1.4065934065934016 1.4065934065934016) scale(2.81 2.81)" >
	<path d="M 51.473 29.274 c -0.543 0 -1.083 -0.219 -1.478 -0.651 c -0.745 -0.815 -0.688 -2.081 0.127 -2.826 c 3.772 -3.447 8.332 -5.968 13.553 -7.495 c 1.063 -0.311 2.171 0.298 2.481 1.358 c 0.31 1.06 -0.299 2.171 -1.358 2.48 c -4.63 1.354 -8.66 3.577 -11.977 6.609 C 52.438 29.102 51.954 29.274 51.473 29.274 z" style="stroke: none; stroke-width: 1; stroke-dasharray: none; stroke-linecap: butt; stroke-linejoin: miter; stroke-miterlimit: 10; fill: rgb(0,0,0); fill-rule: nonzero; opacity: 1;" transform=" matrix(1 0 0 1 0 0) " stroke-linecap="round" />
	<path d="M 51.475 39.087 c -0.543 0 -1.083 -0.219 -1.478 -0.651 c -0.745 -0.815 -0.688 -2.081 0.128 -2.826 c 3.771 -3.446 8.331 -5.967 13.55 -7.493 c 1.063 -0.312 2.171 0.298 2.481 1.358 c 0.31 1.06 -0.299 2.171 -1.358 2.48 c -4.629 1.353 -8.657 3.576 -11.976 6.607 C 52.439 38.915 51.956 39.087 51.475 39.087 z" style="stroke: none; stroke-width: 1; stroke-dasharray: none; stroke-linecap: butt; stroke-linejoin: miter; stroke-miterlimit: 10; fill: rgb(0,0,0); fill-rule: nonzero; opacity: 1;" transform=" matrix(1 0 0 1 0 0) " stroke-linecap="round" />
	<path d="M 51.475 48.902 c -0.543 0 -1.083 -0.219 -1.478 -0.651 c -0.745 -0.815 -0.688 -2.08 0.128 -2.825 c 3.771 -3.446 8.331 -5.967 13.55 -7.493 c 1.063 -0.311 2.171 0.299 2.481 1.358 c 0.31 1.06 -0.299 2.171 -1.358 2.48 c -4.629 1.353 -8.657 3.576 -11.976 6.607 C 52.439 48.729 51.956 48.902 51.475 48.902 z" style="stroke: none; stroke-width: 1; stroke-dasharray: none; stroke-linecap: butt; stroke-linejoin: miter; stroke-miterlimit: 10; fill: rgb(0,0,0); fill-rule: nonzero; opacity: 1;" transform=" matrix(1 0 0 1 0 0) " stroke-linecap="round" />
	<path d="M 85.199 23.813 h -2.051 v -0.141 c 0 -0.923 -0.632 -1.726 -1.528 -1.943 c -3.055 -0.742 -6.146 -1.294 -9.215 -1.669 V 7.156 c 0 -0.577 -0.249 -1.125 -0.683 -1.505 s -1.013 -0.554 -1.582 -0.478 C 58.567 6.721 49.8 12.186 44.042 21.404 C 32.2 18.755 20.209 18.858 8.38 21.729 c -0.897 0.217 -1.528 1.021 -1.528 1.943 v 0.141 H 4.8 c -2.647 0 -4.8 2.154 -4.8 4.801 v 51.429 c 0 2.647 2.153 4.801 4.8 4.801 h 80.399 c 2.647 0 4.801 -2.153 4.801 -4.801 V 28.614 C 90 25.967 87.847 23.813 85.199 23.813 z M 79.148 25.262 v 48.909 c -9.889 -2.075 -19.876 -2.203 -29.779 -0.434 C 54.43 67.189 61.436 63.374 70.67 62.14 c 0.993 -0.133 1.735 -0.98 1.735 -1.982 V 24.081 C 74.65 24.371 76.906 24.765 79.148 25.262 z M 68.405 9.501 v 48.938 C 59.478 59.975 52.307 63.95 47 70.293 v -46.08 C 51.785 16.133 58.807 11.303 68.405 9.501 z M 10.852 25.262 C 21.526 22.9 32.325 22.9 43 25.262 v 48.909 c -5.339 -1.121 -10.707 -1.681 -16.074 -1.681 s -10.735 0.56 -16.074 1.681 V 25.262 z M 4 80.043 V 28.614 c 0 -0.441 0.359 -0.801 0.8 -0.801 h 2.051 v 48.86 c 0 0.613 0.282 1.193 0.764 1.572 s 1.112 0.516 1.708 0.371 C 20.495 75.907 31.815 75.796 43 78.27 v 2.574 H 4.8 C 4.359 80.844 4 80.484 4 80.043 z M 86 80.043 c 0 0.441 -0.359 0.801 -0.801 0.801 H 47 V 78.27 c 11.184 -2.474 22.506 -2.363 33.677 0.347 c 0.156 0.038 0.314 0.057 0.472 0.057 c 0.443 0 0.88 -0.147 1.236 -0.428 c 0.482 -0.379 0.764 -0.959 0.764 -1.572 v -48.86 h 2.051 c 0.441 0 0.801 0.359 0.801 0.801 V 80.043 z" style="stroke: none; stroke-width: 1; stroke-dasharray: none; stroke-linecap: butt; stroke-linejoin: miter; stroke-miterlimit: 10; fill: rgb(0,0,0); fill-rule: nonzero; opacity: 1;" transform=" matrix(1 0 0 1 0 0) " stroke-linecap="round" />
	<path d="M 51.476 58.717 c -0.543 0 -1.083 -0.219 -1.478 -0.651 c -0.745 -0.815 -0.688 -2.08 0.128 -2.825 c 3.772 -3.446 8.331 -5.967 13.55 -7.492 c 1.058 -0.309 2.171 0.3 2.48 1.359 s -0.299 2.171 -1.359 2.48 c -4.627 1.352 -8.655 3.574 -11.974 6.605 C 52.439 58.544 51.957 58.717 51.476 58.717 z" style="stroke: none; stroke-width: 1; stroke-dasharray: none; stroke-linecap: butt; stroke-linejoin: miter; stroke-miterlimit: 10; fill: rgb(0,0,0); fill-rule: nonzero; opacity: 1;" transform=" matrix(1 0 0 1 0 0) " stroke-linecap="round" />
	<path d="M 15.08 36.2 c -0.966 0 -1.816 -0.702 -1.973 -1.687 c -0.174 -1.091 0.57 -2.116 1.661 -2.289 c 8.022 -1.276 16.158 -1.284 24.182 -0.021 c 1.091 0.171 1.836 1.195 1.665 2.287 c -0.171 1.091 -1.197 1.836 -2.287 1.665 c -7.607 -1.197 -15.323 -1.19 -22.932 0.02 C 15.29 36.191 15.184 36.2 15.08 36.2 z" style="stroke: none; stroke-width: 1; stroke-dasharray: none; stroke-linecap: butt; stroke-linejoin: miter; stroke-miterlimit: 10; fill: rgb(0,0,0); fill-rule: nonzero; opacity: 1;" transform=" matrix(1 0 0 1 0 0) " stroke-linecap="round" />
	<path d="M 15.08 46.015 c -0.966 0 -1.816 -0.702 -1.973 -1.687 c -0.173 -1.091 0.57 -2.116 1.661 -2.289 c 8.023 -1.276 16.16 -1.283 24.182 -0.021 c 1.091 0.171 1.836 1.195 1.665 2.287 c -0.171 1.09 -1.197 1.836 -2.287 1.665 c -7.606 -1.196 -15.322 -1.19 -22.932 0.02 C 15.29 46.006 15.184 46.015 15.08 46.015 z" style="stroke: none; stroke-width: 1; stroke-dasharray: none; stroke-linecap: butt; stroke-linejoin: miter; stroke-miterlimit: 10; fill: rgb(0,0,0); fill-rule: nonzero; opacity: 1;" transform=" matrix(1 0 0 1 0 0) " stroke-linecap="round" />
	<path d="M 15.08 55.829 c -0.966 0 -1.816 -0.701 -1.973 -1.686 c -0.174 -1.091 0.57 -2.116 1.661 -2.29 c 8.024 -1.275 16.159 -1.282 24.181 -0.021 c 1.091 0.172 1.836 1.195 1.665 2.286 c -0.171 1.092 -1.197 1.835 -2.287 1.665 c -7.608 -1.197 -15.323 -1.191 -22.931 0.021 C 15.291 55.821 15.185 55.829 15.08 55.829 z" style="stroke: none; stroke-width: 1; stroke-dasharray: none; stroke-linecap: butt; stroke-linejoin: miter; stroke-miterlimit: 10; fill: rgb(0,0,0); fill-rule: nonzero; opacity: 1;" transform=" matrix(1 0 0 1 0 0) " stroke-linecap="round" />
	<path d="M 15.08 65.644 c -0.966 0 -1.816 -0.701 -1.973 -1.686 c -0.173 -1.091 0.57 -2.116 1.661 -2.29 c 8.031 -1.276 16.175 -1.283 24.209 -0.016 c 1.091 0.172 1.836 1.196 1.664 2.287 s -1.199 1.834 -2.287 1.664 c -7.617 -1.2 -15.342 -1.195 -22.958 0.016 C 15.29 65.636 15.184 65.644 15.08 65.644 z" style="stroke: none; stroke-width: 1; stroke-dasharray: none; stroke-linecap: butt; stroke-linejoin: miter; stroke-miterlimit: 10; fill: rgb(0,0,0); fill-rule: nonzero; opacity: 1;" transform=" matrix(1 0 0 1 0 0) " stroke-linecap="round" />
</g>
</svg>