<svg xmlns="http://www.w3.org/2000/svg" xmlns:xlink="http://www.w3.org/1999/xlink" version="1.1" width="256" height="256" viewBox="0 0 256 256" xml:space="preserve">

<defs>
</defs>
<g style="stroke: none; stroke-width: 0; stroke-dasharray: none; stroke-linecap: butt; stroke-linejoin: miter; stroke-miterlimit: 10; fill: none; fill-rule: nonzero; opacity: 1;" transform="translate(1.4065934065934016 1.4065934065934016) scale(2.81 2.81)" >
	<path d="M 89 79.138 H 1 c -0.552 0 -1 -0.447 -1 -1 s 0.448 -1 1 -1 h 88 c 0.553 0 1 0.447 1 1 S 89.553 79.138 89 79.138 z" style="stroke: none; stroke-width: 1; stroke-dasharray: none; stroke-linecap: butt; stroke-linejoin: miter; stroke-miterlimit: 10; fill: rgb(0,0,0); fill-rule: nonzero; opacity: 1;" transform=" matrix(1 0 0 1 0 0) " stroke-linecap="round" />
	<path d="M 45 25.916 c -0.552 0 -1 -0.448 -1 -1 V 11.862 c 0 -0.552 0.448 -1 1 -1 s 1 0.448 1 1 v 13.054 C 46 25.468 45.552 25.916 45 25.916 z" style="stroke: none; stroke-width: 1; stroke-dasharray: none; stroke-linecap: butt; stroke-linejoin: miter; stroke-miterlimit: 10; fill: rgb(0,0,0); fill-rule: nonzero; opacity: 1;" transform=" matrix(1 0 0 1 0 0) " stroke-linecap="round" />
	<path d="M 59.908 79.138 c -0.553 0 -1 -0.447 -1 -1 V 34.536 L 45 26.086 l -13.908 8.45 v 43.602 c 0 0.553 -0.448 1 -1 1 s -1 -0.447 -1 -1 V 33.973 c 0 -0.349 0.182 -0.673 0.481 -0.854 l 14.908 -9.057 c 0.318 -0.194 0.72 -0.194 1.038 0 l 14.909 9.057 c 0.298 0.181 0.48 0.505 0.48 0.854 v 44.165 C 60.908 78.69 60.461 79.138 59.908 79.138 z" style="stroke: none; stroke-width: 1; stroke-dasharray: none; stroke-linecap: butt; stroke-linejoin: miter; stroke-miterlimit: 10; fill: rgb(0,0,0); fill-rule: nonzero; opacity: 1;" transform=" matrix(1 0 0 1 0 0) " stroke-linecap="round" />
	<path d="M 51.713 79.138 c -0.553 0 -1 -0.447 -1 -1 V 62.433 H 39.287 v 15.705 c 0 0.553 -0.448 1 -1 1 s -1 -0.447 -1 -1 V 61.433 c 0 -0.553 0.448 -1 1 -1 h 13.426 c 0.553 0 1 0.447 1 1 v 16.705 C 52.713 78.69 52.266 79.138 51.713 79.138 z" style="stroke: none; stroke-width: 1; stroke-dasharray: none; stroke-linecap: butt; stroke-linejoin: miter; stroke-miterlimit: 10; fill: rgb(0,0,0); fill-rule: nonzero; opacity: 1;" transform=" matrix(1 0 0 1 0 0) " stroke-linecap="round" />
	<path d="M 5.325 79.138 c -0.552 0 -1 -0.447 -1 -1 V 47.182 c 0 -0.553 0.448 -1 1 -1 h 24.767 c 0.552 0 1 0.447 1 1 s -0.448 1 -1 1 H 6.325 v 29.956 C 6.325 78.69 5.877 79.138 5.325 79.138 z" style="stroke: none; stroke-width: 1; stroke-dasharray: none; stroke-linecap: butt; stroke-linejoin: miter; stroke-miterlimit: 10; fill: rgb(0,0,0); fill-rule: nonzero; opacity: 1;" transform=" matrix(1 0 0 1 0 0) " stroke-linecap="round" />
	<path d="M 84.675 79.138 c -0.553 0 -1 -0.447 -1 -1 V 48.182 H 59.908 c -0.553 0 -1 -0.447 -1 -1 s 0.447 -1 1 -1 h 24.767 c 0.553 0 1 0.447 1 1 v 30.956 C 85.675 78.69 85.228 79.138 84.675 79.138 z" style="stroke: none; stroke-width: 1; stroke-dasharray: none; stroke-linecap: butt; stroke-linejoin: miter; stroke-miterlimit: 10; fill: rgb(0,0,0); fill-rule: nonzero; opacity: 1;" transform=" matrix(1 0 0 1 0 0) " stroke-linecap="round" />
	<path d="M 45 54.591 c -4.253 0 -7.713 -3.46 -7.713 -7.713 s 3.46 -7.713 7.713 -7.713 s 7.713 3.46 7.713 7.713 S 49.253 54.591 45 54.591 z M 45 41.165 c -3.15 0 -5.713 2.563 -5.713 5.713 c 0 3.15 2.563 5.713 5.713 5.713 c 3.15 0 5.713 -2.563 5.713 -5.713 C 50.713 43.728 48.15 41.165 45 41.165 z" style="stroke: none; stroke-width: 1; stroke-dasharray: none; stroke-linecap: butt; stroke-linejoin: miter; stroke-miterlimit: 10; fill: rgb(0,0,0); fill-rule: nonzero; opacity: 1;" transform=" matrix(1 0 0 1 0 0) " stroke-linecap="round" />
	<path d="M 57.19 21.654 H 45 c -0.552 0 -1 -0.448 -1 -1 v -8.792 c 0 -0.552 0.448 -1 1 -1 h 12.19 c 0.361 0 0.694 0.195 0.871 0.509 c 0.178 0.315 0.171 0.701 -0.016 1.009 l -2.352 3.877 l 2.352 3.877 c 0.187 0.309 0.193 0.694 0.016 1.009 C 57.885 21.459 57.552 21.654 57.19 21.654 z M 46 19.654 h 9.414 l -1.745 -2.877 c -0.192 -0.319 -0.192 -0.718 0 -1.037 l 1.745 -2.877 H 46 V 19.654 z" style="stroke: none; stroke-width: 1; stroke-dasharray: none; stroke-linecap: butt; stroke-linejoin: miter; stroke-miterlimit: 10; fill: rgb(0,0,0); fill-rule: nonzero; opacity: 1;" transform=" matrix(1 0 0 1 0 0) " stroke-linecap="round" />
	<path d="M 84.675 48.182 H 59.908 c -0.553 0 -1 -0.447 -1 -1 V 37.148 c 0 -0.552 0.447 -1 1 -1 h 11.434 c 0.217 0 0.428 0.07 0.602 0.201 l 13.333 10.034 c 0.344 0.259 0.483 0.708 0.347 1.116 C 85.487 47.906 85.104 48.182 84.675 48.182 z M 60.908 46.182 h 20.774 l -10.675 -8.034 h -10.1 V 46.182 z" style="stroke: none; stroke-width: 1; stroke-dasharray: none; stroke-linecap: butt; stroke-linejoin: miter; stroke-miterlimit: 10; fill: rgb(0,0,0); fill-rule: nonzero; opacity: 1;" transform=" matrix(1 0 0 1 0 0) " stroke-linecap="round" />
	<path d="M 30.092 48.182 H 5.325 c -0.43 0 -0.812 -0.275 -0.948 -0.683 c -0.137 -0.408 0.003 -0.857 0.347 -1.116 l 13.333 -10.034 c 0.173 -0.131 0.384 -0.201 0.601 -0.201 h 11.433 c 0.552 0 1 0.448 1 1 v 10.034 C 31.092 47.734 30.644 48.182 30.092 48.182 z M 8.317 46.182 h 20.774 v -8.034 H 18.993 L 8.317 46.182 z" style="stroke: none; stroke-width: 1; stroke-dasharray: none; stroke-linecap: butt; stroke-linejoin: miter; stroke-miterlimit: 10; fill: rgb(0,0,0); fill-rule: nonzero; opacity: 1;" transform=" matrix(1 0 0 1 0 0) " stroke-linecap="round" />
	<path d="M 21.708 60.66 c -0.552 0 -1 -0.447 -1 -1 v -4.216 c 0 -0.553 0.448 -1 1 -1 s 1 0.447 1 1 v 4.216 C 22.708 60.213 22.261 60.66 21.708 60.66 z" style="stroke: none; stroke-width: 1; stroke-dasharray: none; stroke-linecap: butt; stroke-linejoin: miter; stroke-miterlimit: 10; fill: rgb(0,0,0); fill-rule: nonzero; opacity: 1;" transform=" matrix(1 0 0 1 0 0) " stroke-linecap="round" />
	<path d="M 21.708 71.66 c -0.552 0 -1 -0.447 -1 -1 v -4.216 c 0 -0.553 0.448 -1 1 -1 s 1 0.447 1 1 v 4.216 C 22.708 71.213 22.261 71.66 21.708 71.66 z" style="stroke: none; stroke-width: 1; stroke-dasharray: none; stroke-linecap: butt; stroke-linejoin: miter; stroke-miterlimit: 10; fill: rgb(0,0,0); fill-rule: nonzero; opacity: 1;" transform=" matrix(1 0 0 1 0 0) " stroke-linecap="round" />
	<path d="M 13.708 60.66 c -0.552 0 -1 -0.447 -1 -1 v -4.216 c 0 -0.553 0.448 -1 1 -1 s 1 0.447 1 1 v 4.216 C 14.708 60.213 14.261 60.66 13.708 60.66 z" style="stroke: none; stroke-width: 1; stroke-dasharray: none; stroke-linecap: butt; stroke-linejoin: miter; stroke-miterlimit: 10; fill: rgb(0,0,0); fill-rule: nonzero; opacity: 1;" transform=" matrix(1 0 0 1 0 0) " stroke-linecap="round" />
	<path d="M 13.708 71.66 c -0.552 0 -1 -0.447 -1 -1 v -4.216 c 0 -0.553 0.448 -1 1 -1 s 1 0.447 1 1 v 4.216 C 14.708 71.213 14.261 71.66 13.708 71.66 z" style="stroke: none; stroke-width: 1; stroke-dasharray: none; stroke-linecap: butt; stroke-linejoin: miter; stroke-miterlimit: 10; fill: rgb(0,0,0); fill-rule: nonzero; opacity: 1;" transform=" matrix(1 0 0 1 0 0) " stroke-linecap="round" />
	<path d="M 76.291 60.66 c -0.553 0 -1 -0.447 -1 -1 v -4.216 c 0 -0.553 0.447 -1 1 -1 s 1 0.447 1 1 v 4.216 C 77.291 60.213 76.844 60.66 76.291 60.66 z" style="stroke: none; stroke-width: 1; stroke-dasharray: none; stroke-linecap: butt; stroke-linejoin: miter; stroke-miterlimit: 10; fill: rgb(0,0,0); fill-rule: nonzero; opacity: 1;" transform=" matrix(1 0 0 1 0 0) " stroke-linecap="round" />
	<path d="M 76.291 71.66 c -0.553 0 -1 -0.447 -1 -1 v -4.216 c 0 -0.553 0.447 -1 1 -1 s 1 0.447 1 1 v 4.216 C 77.291 71.213 76.844 71.66 76.291 71.66 z" style="stroke: none; stroke-width: 1; stroke-dasharray: none; stroke-linecap: butt; stroke-linejoin: miter; stroke-miterlimit: 10; fill: rgb(0,0,0); fill-rule: nonzero; opacity: 1;" transform=" matrix(1 0 0 1 0 0) " stroke-linecap="round" />
	<path d="M 68.291 60.66 c -0.553 0 -1 -0.447 -1 -1 v -4.216 c 0 -0.553 0.447 -1 1 -1 s 1 0.447 1 1 v 4.216 C 69.291 60.213 68.844 60.66 68.291 60.66 z" style="stroke: none; stroke-width: 1; stroke-dasharray: none; stroke-linecap: butt; stroke-linejoin: miter; stroke-miterlimit: 10; fill: rgb(0,0,0); fill-rule: nonzero; opacity: 1;" transform=" matrix(1 0 0 1 0 0) " stroke-linecap="round" />
	<path d="M 68.291 71.66 c -0.553 0 -1 -0.447 -1 -1 v -4.216 c 0 -0.553 0.447 -1 1 -1 s 1 0.447 1 1 v 4.216 C 69.291 71.213 68.844 71.66 68.291 71.66 z" style="stroke: none; stroke-width: 1; stroke-dasharray: none; stroke-linecap: butt; stroke-linejoin: miter; stroke-miterlimit: 10; fill: rgb(0,0,0); fill-rule: nonzero; opacity: 1;" transform=" matrix(1 0 0 1 0 0) " stroke-linecap="round" />
</g>
</svg>